<svg width="160" height="224" viewBox="0 0 160 224" fill="none" xmlns="http://www.w3.org/2000/svg">
<path d="M156.398 223.869C177.781 215.83 196.3 201.632 209.613 183.069C222.926 164.505 230.436 142.411 231.192 119.58C231.949 96.7486 225.918 74.2058 213.862 54.8021C201.807 35.3985 184.268 20.0054 163.464 10.5695C142.661 1.13363 119.526 -1.9213 96.9858 1.79104C74.4457 5.50338 53.5127 15.8163 36.8337 31.4256C20.1548 47.0349 8.47914 67.2395 3.28319 89.4845C-1.91276 111.729 -0.395636 135.016 7.64272 156.398L73.7864 131.533C70.6659 123.232 70.0769 114.193 72.094 105.557C74.1111 96.9217 78.6435 89.0783 85.1183 83.0188C91.593 76.9593 99.7192 72.9558 108.469 71.5147C117.219 70.0736 126.2 71.2595 134.276 74.9225C142.352 78.5855 149.161 84.5611 153.841 92.0936C158.521 99.6261 160.862 108.377 160.568 117.24C160.275 126.103 157.359 134.68 152.191 141.886C147.023 149.093 139.834 154.605 131.533 157.725L156.398 223.869Z" fill="#642F99"/>
</svg>
