<svg width="215" height="292" viewBox="0 0 215 292" fill="none" xmlns="http://www.w3.org/2000/svg">
<path d="M193.185 234.146C208.596 207.454 215.745 176.791 213.729 146.036C211.714 115.281 200.623 85.8137 181.86 61.3616C163.098 36.9094 137.505 18.5702 108.32 8.66298C79.1339 -1.24419 47.6659 -2.27435 17.8949 5.70279C-11.8762 13.6799 -38.6132 30.3061 -58.9351 53.4787C-79.257 76.6514 -92.251 105.33 -96.274 135.887C-100.297 166.445 -95.1682 197.509 -81.5363 225.152C-67.9044 252.795 -46.3816 275.775 -19.6896 291.185L27.9804 208.618C17.6186 202.636 9.26348 193.715 3.97159 182.984C-1.3203 172.253 -3.31128 160.194 -1.74956 148.332C-0.187836 136.469 4.85643 125.336 12.7454 116.341C20.6343 107.345 31.0136 100.891 42.5707 97.7942C54.1278 94.6975 66.3437 95.0974 77.6735 98.9434C89.0033 102.789 98.9382 109.909 106.222 119.401C113.506 128.893 117.811 140.332 118.594 152.271C119.376 164.211 116.601 176.114 110.618 186.476L193.185 234.146Z" fill="#642F99"/>
</svg>
